# AST/ASF file generated using VICON BodyLanguage
# -----------------------------------------------
:version 1.10
:name VICON
:units
  mass 1.0
  length 0.45
  angle deg
:documentation
   .ast/.asf automatically generated from VICON data using
   VICON BodyBuilder and BodyLanguage model FoxedUp or BRILLIANT.MOD
:root
   order TX TY TZ RX RY RZ
   axis XYZ
   position 0 0 0  
   orientation 0 0 0 
:bonedata
  begin
     id 1 
     name lhipjoint
     direction 0.547975 -0.797114 0.253638 
     length 2.36201 
     axis 0 0 0  XYZ
  end
  begin
     id 2 
     name lfemur
     direction 0.34202 -0.939693 0  
     length 7.69075  
     axis 0 0 20  XYZ
    dof rx ry rz
    limits (-160.0 20.0)
           (-70.0 70.0)
           (-60.0 70.0)
  end
  begin
     id 3 
     name ltibia
     direction 0.34202 -0.939693 0   
     length 7.91399   
     axis 0 0 20   XYZ
    dof rx
    limits (-10.0 170.0)
  end
  begin
     id 4 
     name lfoot
     direction 0.0705293 -0.193778 0.978507   
     length 2.13618   
     axis -90 7.62852e-016 20   XYZ
    dof rx rz
    limits (-45.0 90.0)
           (-70.0 20.0)
  end
  begin
     id 5 
     name ltoes
     direction 1.53592e-011 -4.21925e-011 1   
     length 1.07518   
     axis -90 7.62852e-016 20   XYZ
    dof rx
    limits (-90.0 20.0)
  end
  begin
     id 6 
     name rhipjoint
     direction -0.57 -0.782963 0.249136   
     length 2.4047  
     axis 0 0 0  XYZ 
  end
  begin
     id 7 
     name rfemur
     direction -0.34202 -0.939693 0   
     length 7.51486   
     axis 0 0 -20   XYZ
    dof rx ry rz
    limits (-160.0 20.0)
           (-70.0 70.0)
           (-70.0 60.0)
  end
  begin
     id 8 
     name rtibia
     direction -0.34202 -0.939693 0   
     length 8.08317   
     axis 0 0 -20   XYZ
    dof rx
    limits (-10.0 170.0)
 end
 begin
     id 9 
     name rfoot
     direction -0.104954 -0.281256 0.953876   
     length 2.30343  
     axis -90 -7.62852e-016 -20   XYZ
    dof rx rz
    limits (-45.0 90.0)
           (-20.0 70.0)
  end
  begin
     id 10 
     name rtoes
     direction -1.53556e-011 -4.21922e-011 1   
     length 1.14803   
     axis -90 -7.62852e-016 -20   XYZ
    dof rx
    limits (-90.0 20.0)
  end
  begin
     id 11 
     name lowerback
     direction -0.0152855 0.99353 -0.11254   
     length 2.05311   
     axis 0 0 0   XYZ
    dof rx ry rz
    limits (-20.0 45.0)
           (-30.0 30.0)
           (-30.0 30.0)
  end
  begin
     id 12 
     name upperback
     direction -0.00157509 0.999443 -0.033332   
     length 2.06353   
     axis 0 0 0   XYZ
    dof rx ry rz
    limits (-20.0 45.0)
           (-30.0 30.0)
           (-30.0 30.0)
  end
  begin
     id 13 
     name thorax
     direction 0.00577788 0.999804 0.0189484   
     length 2.08472   
     axis 0 0 0   XYZ
    dof rx ry rz
    limits (-20.0 45.0)
           (-30.0 30.0)
           (-30.0 30.0)
  end
  begin
     id 14 
     name lowerneck
     direction -1.09301e-005 0.994719 0.10264   
     length 1.76249   
     axis 0 0 0   XYZ
    dof rx ry rz
    limits (-20.0 45.0)
           (-30.0 30.0)
           (-30.0 30.0)
  end
  begin
     id 15 
     name upperneck
     direction 0.0495018 0.988526 -0.142706   
     length 1.77897   
     axis 0 0 0   XYZ
    dof rx ry rz
    limits (-20.0 45.0)
           (-30.0 30.0)
           (-30.0 30.0)
  end
  begin
     id 16
     name head
     direction 0.0142736 0.998114 -0.0597101  
     length 1.78934  
     axis 0 0 0   XYZ
    dof rx ry rz
    limits (-20.0 45.0)
           (-30.0 30.0)
           (-30.0 30.0)
  end
  begin
     id 17 
     name lclavicle
     direction 0.918111 0.396107 -0.0130883  
     length 3.37276  
     axis 0 0 0   XYZ
    dof ry rz
    limits (-20.0 10.0)
           (0.0 20.0)
  end
  begin
     id 18 
     name lhumerus
     direction 1 -4.48975e-011 -3.26108e-027   
     length 5.34298   
     axis 180 -30 -90   XYZ
    dof rx ry rz
    limits (-60.0 90.0)
           (-90.0 90.0)
           (-90.0 90.0)
  end
  begin
     id 19
     name lradius
     direction 1 -4.48964e-011 -8.84413e-028   
     length 3.67262   
     axis 180 -30 -90   XYZ
    dof rx
    limits (-10.0 170.0)
  end
  begin
     id 20
     name lwrist
     direction 1 -4.48991e-011 -1.24264e-027   
     length 1.83631   
     axis -2.17013e-015 90 90   XYZ
    dof ry
    limits (-180.0 0.0)
 end
  begin
     id 21 
     name lhand
     direction 1 -4.48855e-011 -2.48528e-027   
     length 0.599298   
     axis 1.58582e-015 90 90   XYZ
    dof rx rz
    limits (-90.0 90.0)
           (-45.0 45.0)
  end
  begin
     id 22 
     name lfingers
     direction 1 -4.48811e-011 -4.97056e-027   
     length 0.48317   
     axis 3.17164e-015 90 90   XYZ
    dof rx
    limits (0.0 90.0)
  end
  begin
     id 23
     name lthumb
     direction 0.707107 -6.34882e-011 0.707107   
     length 0.693738   
     axis -90 45 2.85299e-015   XYZ
    dof rx rz
    limits (-45.0 45.0)
           (-45.0 45.0)
  end
  begin
     id 24 
     name rclavicle
     direction -0.920511 0.384752 -0.0680135   
     length 3.43787  
     axis 0 0 0   XYZ 
    dof ry rz
    limits (-10.0 20.0)
           (-20.0 0.0)
  end
  begin
     id 25 
     name rhumerus
     direction -0.999976 -0.00330524 0.00603274  
     length 5.5498   
     axis 180 30 90   XYZ
    dof rx ry rz
    limits (-90.0 60.0)
           (-90.0 90.0)
           (-90.0 90.0)
  end
  begin
     id 26 
     name rradius
     direction -1 -4.48967e-011 8.62438e-027   
     length 3.69401   
     axis 180 30 90   XYZ
    dof rx
    limits (-10.0 170.0)
  end
  begin
     id 27 
     name rwrist
     direction -1 -4.4897e-011 9.54866e-027   
     length 1.84701   
     axis -7.69462e-015 -90 -90   XYZ
    dof ry
    limits (-180.0 0.0)
  end
  begin
     id 28
     name rhand
     direction -1 -4.48982e-011 1.90973e-026   
     length 0.638113   
     axis -1.21857e-014 -90 -90   XYZ
    dof rx rz
    limits (-90.0 90.0)
           (-45.0 45.0)
  end
  begin
     id 29
     name rfingers
     direction -1 -4.48936e-011 3.81946e-026   
     length 0.514463   
     axis -2.43714e-014 -90 -90   XYZ
    dof rx
    limits (0.0 90.0)
  end
  begin
     id 30
     name rthumb
     direction -0.707107 -6.34942e-011 0.707107   
     length 0.738669   
     axis -90 -45 -2.85299e-015   XYZ
    dof rx rz
    limits (-45.0 45.0)
           (-45.0 45.0)
  end
:hierarchy
  begin
    root lhipjoint rhipjoint lowerback
    lhipjoint lfemur
    lfemur ltibia
    ltibia lfoot
    lfoot ltoes
    rhipjoint rfemur
    rfemur rtibia
    rtibia rfoot
    rfoot rtoes
    lowerback upperback
    upperback thorax
    thorax lowerneck lclavicle rclavicle
    lowerneck upperneck
    upperneck head
    lclavicle lhumerus
    lhumerus lradius
    lradius lwrist
    lwrist lhand lthumb
    lhand lfingers
    rclavicle rhumerus
    rhumerus rradius
    rradius rwrist
    rwrist rhand rthumb
    rhand rfingers
  end

#!OML:ASF F:\twosubjects\two\Thursday\Session 1\Rory.ASF
:FULLY-SPECIFIED
:DEGREES
83
root 20.224 18.5061 0.141574 0.855545 -3.31886 3.72309
lowerback 2.49356 6.19546 -7.0458
upperback 1.72282 8.10581 -4.64917
thorax 0.104255 4.0151 -1.11006
lowerneck -14.3563 0.729905 -0.142352
upperneck 36.6032 2.50992 -2.82573
head 15.2447 0.708895 -0.726204
rclavicle -5.24792e-014 -3.18055e-014
rhumerus -32.5682 34.9722 -106.397
rradius 97.3506
rwrist -36.1073
rhand -34.1322 12.069
rfingers 7.12502
rthumb -7.30718 -17.7849
lclavicle -5.24792e-014 -3.18055e-014
lhumerus -42.2215 -20.0602 91.3581
lradius 114.349
lwrist 8.82842
lhand -3.93077 41.6494
lfingers 7.12502
lthumb 21.8204 70.4392
rfemur -27.9019 6.59825 11.3004
rtibia 25.9571
rfoot -16.9833 -14.9397
rtoes -17.3629
lfemur 0.936137 -5.26907 -27.1276
ltibia 17.2805
lfoot -16.4279 -1.30316
ltoes 13.0414
84
root 20.2147 18.5039 0.259488 0.680128 -3.39145 3.85535
lowerback 2.85661 5.85401 -7.21017
upperback 1.70961 7.60492 -4.54182
thorax -0.131638 3.76813 -0.934569
lowerneck -14.34 0.782344 -0.392867
upperneck 36.4646 2.59574 -2.7004
head 15.1698 0.72406 -0.614343
rclavicle 7.11649e-014 -6.20208e-014
rhumerus -32.3403 34.7166 -106.099
rradius 97.5269
rwrist -35.8669
rhand -33.8404 12.8251
rfingers 7.12502
rthumb -7.02549 -17.0384
lclavicle 7.11649e-014 -6.20208e-014
lhumerus -42.1656 -20.1845 91.3699
lradius 114.535
lwrist 8.02813
lhand -5.14475 41.711
lfingers 7.12502
lthumb 20.6543 70.632
rfemur -28.289 7.1995 11.393
rtibia 25.7729
rfoot -17.3711 -15.6366
rtoes -20.4803
lfemur 1.96605 -4.54155 -27.2088
ltibia 16.2637
lfoot -15.9824 -1.86182
ltoes 14.594
85
root 20.2047 18.5082 0.377751 0.569137 -3.44167 3.97444
lowerback 3.15192 5.53385 -7.37895
upperback 1.65583 7.136 -4.47732
thorax -0.363505 3.53841 -0.791538
lowerneck -14.1562 0.822298 -0.238422
upperneck 36.1222 2.61698 -2.82786
head 14.9664 0.737541 -0.690218
rclavicle 6.67916e-014 -4.13472e-014
rhumerus -32.2574 34.3494 -105.951
rradius 97.7892
rwrist -35.2195
rhand -33.8341 13.151
rfingers 7.12502
rthumb -7.01942 -16.7126
lclavicle 6.67916e-014 -4.13472e-014
lhumerus -42.1488 -20.2042 91.3144
lradius 114.742
lwrist 7.02168
lhand -5.74541 41.3791
lfingers 7.12502
lthumb 20.0771 70.3617
rfemur -28.6712 7.76693 11.5287
rtibia 25.6592
rfoot -17.0124 -16.9031
rtoes -25.0034
lfemur 2.87727 -3.64542 -27.2127
ltibia 15.4368
lfoot -15.7906 -2.56554
ltoes 16.9867
86
root 20.1998 18.501 0.511365 0.39436 -3.6048 4.17002
lowerback 3.5451 5.27789 -7.45984
upperback 1.48339 6.73381 -4.50462
thorax -0.751439 3.3489 -0.805719
lowerneck -14.0138 0.862618 0.20945
upperneck 36.011 2.61417 -3.09136
head 14.8908 0.759656 -0.880638
rclavicle -1.70955e-014 2.22639e-014
rhumerus -32.544 33.8777 -106.058
rradius 98.1909
rwrist -34.6258
rhand -33.8686 13.2525
rfingers 7.12502
rthumb -7.05269 -16.61
lclavicle -1.70955e-014 2.22639e-014
lhumerus -42.2941 -20.3498 91.1956
lradius 115.039
lwrist 6.12034
lhand -5.71003 42.3501
lfingers 7.12502
lthumb 20.1111 71.3291
rfemur -28.7932 7.4994 11.8084
rtibia 25.5356
rfoot -16.8733 -16.6951
rtoes -26.5361
lfemur 3.83273 -2.81055 -27.4318
ltibia 14.8706
lfoot -16.1311 -2.59052
ltoes 15.3698
87
root 20.1994 18.4869 0.641144 0.376806 -3.75773 4.04564
lowerback 3.83466 5.07562 -7.10992
upperback 1.3298 6.43516 -4.38578
thorax -1.03681 3.20963 -0.891381
lowerneck -14.0296 0.893877 0.118209
upperneck 35.9893 2.63436 -2.97753
head 14.881 0.768438 -0.814097
rclavicle 1.0635e-014 3.10104e-014
rhumerus -32.6682 33.2693 -105.7
rradius 98.6025
rwrist -34.1821
rhand -33.1844 13.149
rfingers 7.12502
rthumb -6.39222 -16.7346
lclavicle 1.0635e-014 3.10104e-014
lhumerus -42.2036 -20.5958 91.3338
lradius 115.312
lwrist 5.20593
lhand -6.86675 42.1068
lfingers 7.12502
lthumb 18.999 71.1989
rfemur -29.0556 7.25698 12.4021
rtibia 25.5374
rfoot -17.0872 -16.2054
rtoes -25.657
lfemur 4.50177 -1.17553 -27.1431
ltibia 14.3144
lfoot -16.1599 -3.30974
ltoes 11.7857
88
root 20.2009 18.4797 0.767356 0.397641 -3.77145 4.20137
lowerback 3.90898 4.85621 -7.01765
upperback 1.34246 6.14094 -4.33409
thorax -1.05051 3.06335 -0.875597
lowerneck -13.9871 0.887977 -0.0639157
upperneck 35.7144 2.5966 -2.81931
head 14.7341 0.749862 -0.720004
rclavicle -5.10877e-014 5.56597e-015
rhumerus -32.4084 32.6205 -105.114
rradius 98.8677
rwrist -33.6308
rhand -32.3083 13.2589
rfingers 7.12502
rthumb -5.5464 -16.6485
lclavicle -5.10877e-014 5.56597e-015
lhumerus -41.7109 -20.9716 91.4723
lradius 115.513
lwrist 4.32941
lhand -6.6499 43.7982
lfingers 7.12502
lthumb 19.2075 72.8697
rfemur -29.4303 6.63531 12.77
rtibia 25.8108
rfoot -17.1851 -15.6523
rtoes -25.3468
lfemur 5.2429 -0.527946 -27.2968
ltibia 13.5416
lfoot -15.8896 -3.53345
ltoes 11.0642
89
root 20.2018 18.4642 0.899308 0.313802 -3.73328 5.25902
lowerback 3.93452 4.52607 -7.93593
upperback 1.43112 5.6661 -4.51062
thorax -1.02294 2.82245 -0.529546
lowerneck -14.296 0.954411 0.0923054
upperneck 35.633 2.67305 -2.93196
head 14.7735 0.781275 -0.780853
rclavicle -2.24627e-014 2.3059e-014
rhumerus -32.1048 32.3802 -104.773
rradius 99.1239
rwrist -33.0984
rhand -32.0364 13.5861
rfingers 7.12502
rthumb -5.28388 -16.328
lclavicle -2.24627e-014 2.3059e-014
lhumerus -41.3258 -21.0541 91.4042
lradius 115.797
lwrist 3.64505
lhand -7.96959 43.2472
lfingers 7.12502
lthumb 17.9381 72.44
rfemur -29.7134 5.57037 12.2077
rtibia 26.19
rfoot -17.0075 -14.7941
rtoes -26.675
lfemur 6.08336 -0.298586 -28.5334
ltibia 12.8688
lfoot -16.019 -3.4437
ltoes 13.331
90
root 20.2009 18.4419 1.03112 0.0436843 -3.70348 6.11165
lowerback 4.27542 4.18139 -8.74546
upperback 1.44893 5.13102 -4.57011
thorax -1.23086 2.55921 -0.145985
lowerneck -14.447 1.0407 0.181611
upperneck 35.5053 2.81372 -3.09353
head 14.7568 0.826199 -0.839494
rclavicle 2.00773e-014 -2.38542e-014
rhumerus -32.0841 32.1867 -104.62
rradius 99.3952
rwrist -32.5013
rhand -31.655 13.921
rfingers 7.12502
rthumb -4.91559 -16.002
lclavicle 2.00773e-014 -2.38542e-014
lhumerus -41.2353 -20.8441 91.4642
lradius 116.017
lwrist 2.74608
lhand -9.27313 42.158
lfingers 7.12502
lthumb 16.6835 71.4611
rfemur -29.7279 4.3791 11.9699
rtibia 26.5477
rfoot -15.8366 -14.1874
rtoes -30.54
lfemur 7.09527 0.0742496 -29.4845
ltibia 12.3261
lfoot -15.5744 -3.45245
ltoes 11.327
91
root 20.1937 18.427 1.16515 -0.235889 -3.73531 6.02981
lowerback 4.66713 3.88986 -8.60819
upperback 1.37959 4.69539 -4.46346
thorax -1.4935 2.35121 -0.111404
lowerneck -14.1216 1.09791 0.491804
upperneck 35.1665 2.85365 -3.32267
head 14.5335 0.856877 -0.980545
rclavicle 3.84648e-014 -9.54166e-015
rhumerus -32.249 31.6856 -104.716
rradius 99.5789
rwrist -31.783
rhand -30.9434 14.7815
rfingers 7.12502
rthumb -4.22853 -15.1563
lclavicle 3.84648e-014 -9.54166e-015
lhumerus -41.2646 -20.7348 91.4777
lradius 116.134
lwrist 1.61286
lhand -8.81619 41.7165
lfingers 7.12502
lthumb 17.1234 70.9819
rfemur -29.5886 3.38572 12.8477
rtibia 26.9321
rfoot -14.5254 -13.7528
rtoes -34.2066
lfemur 8.21071 0.170432 -29.3865
ltibia 11.72
lfoot -15.4066 -3.49302
ltoes 11.0846
92
root 20.184 18.4142 1.30939 -0.24906 -3.74481 5.97208
lowerback 4.62771 3.56044 -8.49184
upperback 1.33764 4.26691 -4.34881
thorax -1.48918 2.13888 -0.0229336
lowerneck -14.2156 1.12821 0.771767
upperneck 35.2105 2.88156 -3.54037
head 14.5854 0.870871 -1.11668
rclavicle -3.02153e-014 5.08889e-014
rhumerus -32.3858 31.3957 -104.678
rradius 99.951
rwrist -31.2759
rhand -30.624 15.0705
rfingers 7.12502
rthumb -3.92009 -14.8732
lclavicle -3.02153e-014 5.08889e-014
lhumerus -41.223 -20.5945 91.4512
lradius 116.292
lwrist 0.650264
lhand -10.7268 41.2182
lfingers 7.12502
lthumb 15.2837 70.6335
rfemur -29.5061 3.2233 13.3885
rtibia 27.1368
rfoot -14.1719 -13.7499
rtoes -36.6637
lfemur 8.818 0.357138 -29.262
ltibia 11.5475
lfoot -15.3607 -3.63602
ltoes 10.6752
93
root 20.1814 18.3986 1.46305 -0.192664 -3.59573 6.21373
lowerback 4.50726 3.19683 -8.62674
upperback 1.33891 3.79503 -4.21554
thorax -1.40818 1.90206 0.230022
lowerneck -14.3159 1.02465 0.294062
upperneck 35.159 2.75197 -3.25163
head 14.5677 0.78677 -0.934127
rclavicle -1.47101e-014 1.59028e-015
rhumerus -32.4439 31.3724 -104.348
rradius 100.376
rwrist -31.1263
rhand -30.6743 14.4262
rfingers 7.12502
rthumb -3.96859 -15.5166
lclavicle -1.47101e-014 1.59028e-015
lhumerus -41.043 -20.5555 91.6422
lradius 116.378
lwrist -0.101361
lhand -11.9674 40.6576
lfingers 7.12502
lthumb 14.0884 70.16
rfemur -29.3167 3.36259 13.3601
rtibia 27.1126
rfoot -14.1331 -13.8275
rtoes -38.2559
lfemur 9.08021 0.57914 -29.4644
ltibia 11.9925
lfoot -15.3966 -3.87472
ltoes 9.82645
94
root 20.1724 18.3808 1.61049 -0.325567 -3.57348 5.59555
lowerback 4.68171 2.915 -7.99009
upperback 1.38875 3.44071 -3.80164
thorax -1.41965 1.72496 0.327072
lowerneck -14.0692 0.899335 -0.394631
upperneck 34.6574 2.57449 -2.80927
head 14.2579 0.685618 -0.655901
rclavicle 2.98177e-015 5.00937e-014
rhumerus -32.2158 31.285 -103.853
rradius 100.523
rwrist -30.976
rhand -30.4265 14.2682
rfingers 7.12502
rthumb -3.7293 -15.6789
lclavicle 2.98177e-015 5.00937e-014
lhumerus -40.8336 -20.5482 91.9438
lradius 116.417
lwrist -0.773411
lhand -13.3224 39.928
lfingers 7.12502
lthumb 12.7824 69.5167
rfemur -28.9024 3.93564 14.3075
rtibia 27.1626
rfoot -13.7067 -14.158
rtoes -39.7142
lfemur 9.64899 0.929309 -28.6794
ltibia 12.2914
lfoot -15.4042 -4.04318
ltoes 6.87138
95
root 20.158 18.3613 1.76236 -0.631979 -3.5556 4.96684
lowerback 4.84527 2.65902 -7.43238
upperback 1.55091 3.12848 -3.36604
thorax -1.31839 1.56358 0.489561
lowerneck -14.0651 0.811876 -0.62865
upperneck 34.3783 2.48985 -2.80773
head 14.1262 0.619754 -0.625536
rclavicle 1.49089e-015 -2.8625e-014
rhumerus -31.9115 31.1453 -103.325
rradius 100.656
rwrist -30.4825
rhand -29.8346 14.584
rfingers 7.12502
rthumb -3.15771 -15.3723
lclavicle 1.49089e-015 -2.8625e-014
lhumerus -40.6075 -20.4216 92.1877
lradius 116.496
lwrist -1.25058
lhand -14.0194 39.9562
lfingers 7.12502
lthumb 12.1104 69.5857
rfemur -28.2926 4.46362 15.325
rtibia 27.3555
rfoot -13.228 -14.1084
rtoes -40.1196
lfemur 10.4773 1.45627 -27.7818
ltibia 12.4414
lfoot -15.2479 -4.58246
ltoes 4.57163
96
root 20.1534 18.3409 1.92336 -0.556789 -3.19027 5.83961
lowerback 4.58952 2.29268 -8.22762
upperback 1.4946 2.62731 -3.45017
thorax -1.23124 1.31268 0.883492
lowerneck -14.1875 0.73858 -0.577537
upperneck 34.5263 2.38501 -2.86881
head 14.221 0.566654 -0.678038
rclavicle -3.45885e-014 1.03368e-014
rhumerus -31.9814 30.8802 -103.187
rradius 100.842
rwrist -29.8538
rhand -29.3428 14.531
rfingers 7.12502
rthumb -2.68281 -15.4319
lclavicle -3.45885e-014 1.03368e-014
lhumerus -40.4771 -20.508 92.3593
lradius 116.436
lwrist -1.44745
lhand -14.2357 40.3795
lfingers 7.12502
lthumb 11.9018 70.0212
rfemur -28.1006 3.89149 14.7022
rtibia 27.5264
rfoot -13.0056 -13.1082
rtoes -39.2986
lfemur 10.6847 1.39487 -28.659
ltibia 12.9389
lfoot -15.1321 -5.12462
ltoes 5.09849
